<mxfile host="app.diagrams.net" modified="2021-08-09T13:04:15.942Z" agent="5.0 (Macintosh; Intel Mac OS X 10_13_6) AppleWebKit/537.36 (KHTML, like Gecko) Chrome/92.0.4515.131 Safari/537.36" etag="LfOVQck0FA-oOYALR7Mu" version="14.9.5" type="github">
  <diagram id="aGeyaZj36AmRxe9gssWj" name="Page-1">
    <mxGraphModel dx="786" dy="514" grid="1" gridSize="10" guides="1" tooltips="1" connect="1" arrows="1" fold="1" page="1" pageScale="1" pageWidth="827" pageHeight="1169" math="0" shadow="0">
      <root>
        <mxCell id="0" />
        <mxCell id="1" parent="0" />
        <mxCell id="1DO-AOTjLM1VeJHup7tJ-1" value="" style="rounded=0;whiteSpace=wrap;html=1;" vertex="1" parent="1">
          <mxGeometry x="80" width="120" height="60" as="geometry" />
        </mxCell>
        <mxCell id="1DO-AOTjLM1VeJHup7tJ-3" value="" style="edgeStyle=orthogonalEdgeStyle;rounded=0;orthogonalLoop=1;jettySize=auto;html=1;" edge="1" parent="1" source="1DO-AOTjLM1VeJHup7tJ-2" target="1DO-AOTjLM1VeJHup7tJ-1">
          <mxGeometry relative="1" as="geometry" />
        </mxCell>
        <mxCell id="1DO-AOTjLM1VeJHup7tJ-2" value="" style="rounded=1;whiteSpace=wrap;html=1;" vertex="1" parent="1">
          <mxGeometry x="294" width="120" height="60" as="geometry" />
        </mxCell>
        <mxCell id="1DO-AOTjLM1VeJHup7tJ-5" style="edgeStyle=orthogonalEdgeStyle;rounded=0;orthogonalLoop=1;jettySize=auto;html=1;" edge="1" parent="1" source="1DO-AOTjLM1VeJHup7tJ-4" target="1DO-AOTjLM1VeJHup7tJ-2">
          <mxGeometry relative="1" as="geometry" />
        </mxCell>
        <mxCell id="1DO-AOTjLM1VeJHup7tJ-4" value="" style="rounded=1;whiteSpace=wrap;html=1;" vertex="1" parent="1">
          <mxGeometry x="294" y="150" width="120" height="60" as="geometry" />
        </mxCell>
      </root>
    </mxGraphModel>
  </diagram>
</mxfile>
